<svg xmlns="http://www.w3.org/2000/svg" width="48" height="48" viewBox="0 0 48 48">
  <defs>
    <style>
      .a {
        fill: #df5a49;
      }

      .b {
        fill: #fff;
      }
    </style>
  </defs>
  <title>icon</title>
  <circle class="a" cx="24" cy="24" r="24"/>
  <path class="b" d="M35.3,15.8a5.8,5.8,0,0,0,2.6-3.3A14.3,14.3,0,0,1,34,13.9,5.7,5.7,0,0,0,29.6,12a6.15,6.15,0,0,0-6.1,6.1,4.3,4.3,0,0,0,.2,1.3,16.3,16.3,0,0,1-12.5-6.3,6.1,6.1,0,0,0-.8,3,5.9,5.9,0,0,0,2.7,5.1,6.7,6.7,0,0,1-2.7-.8,5.9,5.9,0,0,0,4.8,6l-1.6.2h-1a5.8,5.8,0,0,0,2.1,3,6,6,0,0,0,3.5,1.2,11.8,11.8,0,0,1-7.5,2.6H9.2a16.8,16.8,0,0,0,9.3,2.7,16.6,16.6,0,0,0,9.3-2.7,16.7,16.7,0,0,0,6-6.5,17.7,17.7,0,0,0,1.9-8V18a12.8,12.8,0,0,0,3-3.2A13.4,13.4,0,0,1,35.3,15.8Z"/>
</svg>
