<svg xmlns="http://www.w3.org/2000/svg" width="48" height="48" viewBox="0 0 48 48">
  <defs>
    <style>
      .a {
        fill: #df5a49;
      }

      .b {
        fill: #fff;
      }
    </style>
  </defs>
  <title>icon</title>
  <circle class="a" cx="24" cy="24" r="24"/>
  <path class="b" d="M32.4,10H28c-4.9,0-8.1,2.7-8.1,6.9v3.2H15.6a0.6,0.6,0,0,0-.7.6v4.6a0.6,0.6,0,0,0,.59.61H20V37.4a0.6,0.6,0,0,0,.59.61H26.4a0.6,0.6,0,0,0,.7-0.6V25.8h5.1a0.6,0.6,0,0,0,.7-0.6V20.6a0.5,0.5,0,0,0-.2-0.4L32.2,20H27.1V17.4c0-1.3.4-2,2.4-2h2.9a0.6,0.6,0,0,0,.7-0.6V10.6A0.6,0.6,0,0,0,32.51,10H32.4Z"/>
</svg>
