<svg xmlns="http://www.w3.org/2000/svg" width="48" height="48" viewBox="0 0 48 48">
  <defs>
    <style>
      .a {
        fill: #df5a49;
      }

      .b {
        fill: #fff;
      }
    </style>
  </defs>
  <title>icon</title>
  <circle class="a" cx="24" cy="24" r="24"/>
  <path class="b" d="M22.1,25.9c-0.7-.5-2-1.6-2-2.3s0.2-1.2,1.4-2.1a5,5,0,0,0,2.1-3.9c0-1.9-.8-3.7-2.4-4.3h2.4L25.3,12H17.9c-3.3,0-6.5,2.5-6.5,5.4a5.4,5.4,0,0,0,5.39,5.41h1a3,3,0,0,0-.4,1.4,2.9,2.9,0,0,0,1,2.1H17.1c-4.1,0-7.3,2.6-7.3,5.4s3.5,4.4,7.6,4.4,7.3-2.7,7.3-5.4A5.2,5.2,0,0,0,22.1,25.9Zm-4-3.8C16.2,22,14.4,20,14,17.4S15,13,16.9,13s3.7,2.1,4.1,4.6S20.1,22.1,18.1,22.1ZM17.4,34.9c-4,0-4.9-1.8-4.9-4S15.1,27,17.9,27l1.8,0.3c1.6,1,2.7,1.7,3,2.9a3.3,3.3,0,0,1,.1.8C22.8,33.2,21.4,34.9,17.4,34.9Z"/>
  <polyline class="b" points="32.9 17.3 32.9 12 31.1 12 31.1 17.3 25.8 17.3 25.8 19 31.1 19 31.1 24.4 32.9 24.4 32.9 19 38.2 19 38.2 17.3 32.9 17.3"/>
</svg>
