<svg xmlns="http://www.w3.org/2000/svg" width="48" height="48" viewBox="0 0 48 48">
  <defs>
    <style>
      .a {
        fill: #df5a49;
      }

      .b {
        fill: #fff;
      }
    </style>
  </defs>
  <title>icon</title>
  <circle class="a" cx="24" cy="24" r="24"/>
  <path class="b" d="M33.2,18.7c-0.7-4.7-5.4-7.2-10.4-6.6s-8,3.7-8.1,8.3c-0.1,2.8.7,4.9,3.4,5.5,1.2-2.1-.4-2.5-0.6-4-1-6.1,7-10.2,11.2-6s1,12-3.7,11,2.2-8.1-1.4-9.5-4.4,3.5-3.1,5.8C19.7,27.3,18,31,18.7,36c2.3-1.7,3-4.8,3.7-8.1,1.1,0.7,1.8,1.4,3.2,1.5C31,29.8,34,24,33.2,18.7Z"/>
</svg>
