<svg xmlns="http://www.w3.org/2000/svg" width="48" height="48" viewBox="0 0 48 48">
  <defs>
    <style>
      .a {
        fill: #fff;
      }
    </style>
  </defs>
  <title>icon</title>
  <path class="a" d="M32.4-86H28c-4.9,0-8.1,2.7-8.1,6.9v3.2H15.6a0.6,0.6,0,0,0-.69.49,0.6,0.6,0,0,0,0,.11v4.6a0.6,0.6,0,0,0,.59.61H20v11.5a0.6,0.6,0,0,0,.59.61H26.4a0.6,0.6,0,0,0,.69-0.49,0.6,0.6,0,0,0,0-.11V-70.2h5.1a0.6,0.6,0,0,0,.69-0.49,0.6,0.6,0,0,0,0-.11v-4.6a0.5,0.5,0,0,0-.2-0.4L32.2-76H27.1v-2.6c0-1.3.4-2,2.4-2h2.9a0.6,0.6,0,0,0,.69-0.49,0.6,0.6,0,0,0,0-.11v-4.2A0.6,0.6,0,0,0,32.51-86H32.4Zm2.9,53.8a5.8,5.8,0,0,0,2.6-3.3A14.3,14.3,0,0,1,34-34.1,5.7,5.7,0,0,0,29.6-36a5.9,5.9,0,0,0-4.3,1.8,5.9,5.9,0,0,0-1.8,4.3,4.3,4.3,0,0,0,.2,1.3,16.3,16.3,0,0,1-12.5-6.3,6.1,6.1,0,0,0-.8,3,5.9,5.9,0,0,0,2.7,5.1,6.7,6.7,0,0,1-2.7-.8,6,6,0,0,0,1.3,3.9,6,6,0,0,0,3.5,2.1l-1.6.2h-1a5.8,5.8,0,0,0,2.1,3,6,6,0,0,0,3.5,1.2,11.8,11.8,0,0,1-7.5,2.6H9.2a16.8,16.8,0,0,0,9.3,2.7,16.6,16.6,0,0,0,9.3-2.7,16.7,16.7,0,0,0,6-6.5,17.7,17.7,0,0,0,1.9-8V-30a12.8,12.8,0,0,0,3-3.2A13.4,13.4,0,0,1,35.3-32.2Zm-2.1-93.1c-0.7-4.7-5.4-7.2-10.4-6.6s-8,3.7-8.1,8.3c-0.1,2.8.7,4.9,3.4,5.5,1.2-2.1-.4-2.5-0.6-4-1-6.1,7-10.2,11.2-6s1,12-3.7,11,2.2-8.1-1.4-9.5-4.4,3.5-3.1,5.8c-0.8,4.1-2.5,7.8-1.8,12.8,2.3-1.7,3-4.8,3.7-8.1,1.1,0.7,1.8,1.4,3.2,1.5C31-114.2,34-120,33.2-125.3ZM25.3,12H17.9c-3.3,0-6.5,2.5-6.5,5.4a5.4,5.4,0,0,0,5.39,5.41h1a3,3,0,0,0-.4,1.4,2.9,2.9,0,0,0,1,2.1H17.1c-4.1,0-7.3,2.6-7.3,5.4s3.5,4.4,7.6,4.4,7.3-2.7,7.3-5.4a5.2,5.2,0,0,0-2.6-4.8c-0.7-.5-2-1.6-2-2.3s0.2-1.2,1.4-2.1a5,5,0,0,0,2.1-3.9c0-1.9-.8-3.7-2.4-4.3h2.4ZM22.7,30.2a3.3,3.3,0,0,1,.1.8c0,2.2-1.4,3.9-5.4,3.9s-4.9-1.8-4.9-4S15.1,27,17.9,27l1.8,0.3C21.3,28.3,22.4,29,22.7,30.2Zm-4.6-8.1C16.2,22,14.4,20,14,17.4S15,13,16.9,13s3.7,2.1,4.1,4.6-0.9,4.5-2.9,4.5h0Zm14.8-4.8V12H31.1v5.3H25.8V19h5.3v5.4h1.8V19h5.3V17.3H32.9"/>
</svg>
