<?xml version="1.0" encoding="utf-8"?>
<!-- Generator: Adobe Illustrator 19.2.1, SVG Export Plug-In . SVG Version: 6.00 Build 0)  -->
<svg version="1.1" id="Layer_1" xmlns="http://www.w3.org/2000/svg" xmlns:xlink="http://www.w3.org/1999/xlink" x="0px" y="0px"
	 viewBox="0 0 48 224" style="enable-background:new 0 0 48 224;" xml:space="preserve">
<style type="text/css">
	.st0{fill:#DF5A49;}
	.st1{fill:#FFFFFF;}
	.st2{fill:#DDDDDD;}
	.st3{fill:#EFC94C;}
</style>
<circle class="st0" cx="24" cy="24" r="24"/>
<circle class="st0" cx="24" cy="72" r="24"/>
<circle class="st0" cx="24" cy="120" r="24"/>
<circle class="st0" cx="24" cy="168" r="24"/>
<title>icons</title>
<path class="st1" d="M32.4,58H28c-4.9,0-8.1,2.7-8.1,6.9v3.2h-4.3c-0.3-0.1-0.6,0.2-0.7,0.5c0,0,0,0.1,0,0.1v4.6
	c0,0.3,0.3,0.6,0.6,0.6c0,0,0.1,0,0.1,0H20v11.5c0,0.3,0.3,0.6,0.6,0.6c0,0,0.1,0,0.1,0h5.7c0.3,0.1,0.6-0.2,0.7-0.5
	c0,0,0-0.1,0-0.1V73.8h5.1c0.3,0.1,0.6-0.2,0.7-0.5c0,0,0-0.1,0-0.1v-4.6c0-0.2-0.1-0.3-0.2-0.4L32.2,68h-5.1v-2.6
	c0-1.3,0.4-2,2.4-2h2.9c0.3,0.1,0.6-0.2,0.7-0.5c0,0,0-0.1,0-0.1v-4.2c0-0.3-0.3-0.6-0.6-0.6C32.5,58,32.4,58,32.4,58L32.4,58z"/>
<path class="st1" d="M35.3,111.8c1.2-0.7,2.2-1.9,2.6-3.3c-1.2,0.7-2.5,1.1-3.9,1.4c-1.1-1.2-2.7-1.9-4.4-1.9
	c-1.6,0-3.2,0.6-4.3,1.8c-1.2,1.1-1.8,2.7-1.8,4.3c0,0.4,0.1,0.9,0.2,1.3c-4.9-0.1-9.5-2.4-12.5-6.3c-0.5,0.9-0.8,1.9-0.8,3
	c0,2.1,1,4,2.7,5.1c-0.9-0.1-1.9-0.3-2.7-0.8c0,1.4,0.4,2.8,1.3,3.9c0.9,1.1,2.1,1.8,3.5,2.1l-1.6,0.2h-1c0.4,1.2,1.1,2.3,2.1,3
	c1,0.8,2.2,1.2,3.5,1.2c-2.1,1.7-4.8,2.6-7.5,2.6H9.2c2.8,1.8,6,2.7,9.3,2.7c3.3,0,6.5-0.9,9.3-2.7c2.5-1.6,4.6-3.8,6-6.5
	c1.3-2.5,1.9-5.2,1.9-8V114c1.2-0.9,2.2-2,3-3.2C37.6,111.3,36.5,111.6,35.3,111.8z"/>
<path class="st1" d="M33.2,18.7c-0.7-4.7-5.4-7.2-10.4-6.6s-8,3.7-8.1,8.3c-0.1,2.8,0.7,4.9,3.4,5.5c1.2-2.1-0.4-2.5-0.6-4
	c-1-6.1,7-10.2,11.2-6s1,12-3.7,11s2.2-8.1-1.4-9.5s-4.4,3.5-3.1,5.8C19.7,27.3,18,31,18.7,36c2.3-1.7,3-4.8,3.7-8.1
	c1.1,0.7,1.8,1.4,3.2,1.5C31,29.8,34,24,33.2,18.7z"/>
<path class="st1" d="M22.1,169.9c-0.7-0.5-2-1.6-2-2.3s0.2-1.2,1.4-2.1c1.3-0.9,2-2.3,2.1-3.9c0-1.9-0.8-3.7-2.4-4.3h2.4l1.7-1.3
	h-7.4c-3.3,0-6.5,2.5-6.5,5.4c0,3,2.4,5.4,5.4,5.4c0.1,0,0.2,0,0.3,0h0.7c-0.2,0.4-0.4,0.9-0.4,1.4c0,0.8,0.4,1.6,1,2.1h-1.3
	c-4.1,0-7.3,2.6-7.3,5.4s3.5,4.4,7.6,4.4c4.1,0,7.3-2.7,7.3-5.4C24.8,172.7,23.8,170.9,22.1,169.9z M18.1,166.1
	c-1.9-0.1-3.7-2.1-4.1-4.7c-0.4-2.6,1-4.4,2.9-4.4c1.9,0,3.7,2.1,4.1,4.6S20.1,166.1,18.1,166.1z M17.4,178.9c-4,0-4.9-1.8-4.9-4
	c0-2.2,2.6-3.9,5.4-3.9l1.8,0.3c1.6,1,2.7,1.7,3,2.9c0.1,0.3,0.1,0.5,0.1,0.8C22.8,177.2,21.4,178.9,17.4,178.9z"/>
<polyline class="st1" points="32.9,161.3 32.9,156 31.1,156 31.1,161.3 25.8,161.3 25.8,163 31.1,163 31.1,168.4 32.9,168.4
	32.9,163 38.2,163 38.2,161.3 32.9,161.3 "/>
<path class="st2" d="M8,208.4l2.5,5l5.5,0.8l-4,3.9l0.9,5.5L8,221l-4.9,2.6l0.9-5.5l-4-3.9l5.5-0.8L8,208.4"/>
<path class="st3" d="M8,192.4l2.5,5l5.5,0.8l-4,3.9l0.9,5.5L8,205l-4.9,2.6l0.9-5.5l-4-3.9l5.5-0.8L8,192.4"/>
</svg>
