<svg xmlns="http://www.w3.org/2000/svg" viewBox="0 0 48 288"><defs><style>.a{fill:#fff;}.b{fill:#ddd;}.c{fill:#efc94c;}</style></defs><title>icons</title><path class="a" d="M32.4 58H28c-4.9 0-8.1 2.7-8.1 6.9v3.2h-4.3a.6.6 0 0 0-.7.6v4.6a.6.6 0 0 0 .7.6H20v11.5a.6.6 0 0 0 .7.6h5.7a.6.6 0 0 0 .7-.6V73.8h5.1a.6.6 0 0 0 .7-.6v-4.6a.5.5 0 0 0-.2-.4l-.5-.2h-5.1v-2.6c0-1.3.4-2 2.4-2h2.9a.6.6 0 0 0 .7-.6v-4.2a.6.6 0 0 0-.7-.6zM35.3 111.8a5.8 5.8 0 0 0 2.6-3.3 14.3 14.3 0 0 1-3.9 1.4 5.7 5.7 0 0 0-4.4-1.9 5.9 5.9 0 0 0-4.3 1.8 5.9 5.9 0 0 0-1.8 4.3 4.3 4.3 0 0 0 .2 1.3 16.3 16.3 0 0 1-12.5-6.3 6.1 6.1 0 0 0-.8 3 5.9 5.9 0 0 0 2.7 5.1 6.7 6.7 0 0 1-2.7-.8 6 6 0 0 0 1.3 3.9 6 6 0 0 0 3.5 2.1l-1.6.2h-1a5.8 5.8 0 0 0 2.1 3 6 6 0 0 0 3.5 1.2 11.8 11.8 0 0 1-7.5 2.6H9.2a16.8 16.8 0 0 0 9.3 2.7 16.6 16.6 0 0 0 9.3-2.7 16.7 16.7 0 0 0 6-6.5 17.7 17.7 0 0 0 1.9-8v-.9a12.8 12.8 0 0 0 3-3.2 13.4 13.4 0 0 1-3.4 1zM33.2 18.7c-.7-4.7-5.4-7.2-10.4-6.6s-8 3.7-8.1 8.3c-.1 2.8.7 4.9 3.4 5.5 1.2-2.1-.4-2.5-.6-4-1-6.1 7-10.2 11.2-6s1 12-3.7 11 2.2-8.1-1.4-9.5-4.4 3.5-3.1 5.8C19.7 27.3 18 31 18.7 36c2.3-1.7 3-4.8 3.7-8.1 1.1.7 1.8 1.4 3.2 1.5 5.4.4 8.4-5.4 7.6-10.7zM25.3 156h-7.4c-3.3 0-6.5 2.5-6.5 5.4a5.4 5.4 0 0 0 5.7 5.4h.7a3 3 0 0 0-.4 1.4 2.9 2.9 0 0 0 1 2.1h-1.3c-4.1 0-7.3 2.6-7.3 5.4s3.5 4.4 7.6 4.4 7.3-2.7 7.3-5.4a5.2 5.2 0 0 0-2.6-4.8c-.7-.5-2-1.6-2-2.3s.2-1.2 1.4-2.1a5 5 0 0 0 2.1-3.9c0-1.9-.8-3.7-2.4-4.3h2.4zm-2.6 18.2a3.3 3.3 0 0 1 .1.8c0 2.2-1.4 3.9-5.4 3.9s-4.9-1.8-4.9-4 2.6-3.9 5.4-3.9l1.8.3c1.6 1 2.7 1.7 3 2.9zm-4.6-8.1c-1.9-.1-3.7-2.1-4.1-4.7s1-4.4 2.9-4.4 3.7 2.1 4.1 4.6-.9 4.5-2.9 4.5zM32.9 161.3V156h-1.8v5.3h-5.3v1.7h5.3v5.4h1.8V163h5.3v-1.7h-5.3"/><path class="b" d="M24 241.2l7.4 15 16.6 2.4-12 11.7 2.8 16.5L24 279l-14.8 7.8 2.8-16.5-12-11.7 16.6-2.4 7.4-15"/><path class="c" d="M24 193.2l7.4 15 16.6 2.4-12 11.7 2.8 16.5L24 231l-14.8 7.8 2.8-16.5-12-11.7 16.6-2.4 7.4-15"/></svg>