<?xml version="1.0" encoding="utf-8"?><svg width="224" height="224" viewBox="0 0 224 224" xmlns="http://www.w3.org/2000/svg" xmlns:xlink="http://www.w3.org/1999/xlink"><svg width="48" height="48" viewBox="0 0 48 48" id="icon_facebook"><defs><style>.aa{fill:#df5a49}.ab{fill:#fff}</style></defs><title>icon</title><circle class="aa" cx="24" cy="24" r="24"/><path class="ab" d="M32.4 10H28c-4.9 0-8.1 2.7-8.1 6.9v3.2h-4.3a.6.6 0 0 0-.7.6v4.6a.6.6 0 0 0 .59.61H20V37.4a.6.6 0 0 0 .59.61h5.81a.6.6 0 0 0 .7-.6V25.8h5.1a.6.6 0 0 0 .7-.6v-4.6a.5.5 0 0 0-.2-.4l-.5-.2h-5.1v-2.6c0-1.3.4-2 2.4-2h2.9a.6.6 0 0 0 .7-.6v-4.2a.6.6 0 0 0-.59-.6h-.11z"/></svg><svg width="48" height="48" viewBox="0 0 48 48" id="icon_google-plus" x="48" y="48"><defs><style>.ba{fill:#df5a49}.bb{fill:#fff}</style></defs><title>icon</title><circle class="ba" cx="24" cy="24" r="24"/><path class="bb" d="M22.1 25.9c-.7-.5-2-1.6-2-2.3s.2-1.2 1.4-2.1a5 5 0 0 0 2.1-3.9c0-1.9-.8-3.7-2.4-4.3h2.4l1.7-1.3h-7.4c-3.3 0-6.5 2.5-6.5 5.4a5.4 5.4 0 0 0 5.39 5.41h1a3 3 0 0 0-.4 1.4 2.9 2.9 0 0 0 1 2.1H17.1c-4.1 0-7.3 2.6-7.3 5.4s3.5 4.4 7.6 4.4 7.3-2.7 7.3-5.4a5.2 5.2 0 0 0-2.6-4.81zm-4-3.8c-1.9-.1-3.7-2.1-4.1-4.7s1-4.4 2.9-4.4 3.7 2.1 4.1 4.6-.9 4.5-2.9 4.5zm-.7 12.8c-4 0-4.9-1.8-4.9-4s2.6-3.9 5.4-3.9l1.8.3c1.6 1 2.7 1.7 3 2.9a3.3 3.3 0 0 1 .1.8c0 2.2-1.4 3.9-5.4 3.9zM32.9 17.3V12h-1.8v5.3h-5.3V19h5.3v5.4h1.8V19h5.3v-1.7h-5.3"/></svg><svg width="48" height="48" viewBox="0 0 48 48" id="icon_pinterest" x="96" y="96"><defs><style>.ca{fill:#df5a49}.cb{fill:#fff}</style></defs><title>icon</title><circle class="ca" cx="24" cy="24" r="24"/><path class="cb" d="M33.2 18.7c-.7-4.7-5.4-7.2-10.4-6.6s-8 3.7-8.1 8.3c-.1 2.8.7 4.9 3.4 5.5 1.2-2.1-.4-2.5-.6-4-1-6.1 7-10.2 11.2-6s1 12-3.7 11 2.2-8.1-1.4-9.5-4.4 3.5-3.1 5.8C19.7 27.3 18 31 18.7 36c2.3-1.7 3-4.8 3.7-8.1 1.1.7 1.8 1.4 3.2 1.5 5.4.4 8.4-5.4 7.6-10.7z"/></svg><svg width="16" height="16" viewBox="0 0 16 16" id="icon_star-off" x="144" y="144"><defs><style>.da{fill:#ddd}</style></defs><title>icon</title><path class="da" d="M8 .4l2.47 5 5.53.8-4 3.9.93 5.5L8 13l-4.93 2.6.93-5.5-4-3.9 5.53-.8L8 .4"/></svg><svg width="16" height="16" viewBox="0 0 16 16" id="icon_star-on" x="160" y="160"><defs><style>.ea{fill:#efc94c}</style></defs><title>icon</title><path class="ea" d="M8 .4l2.47 5 5.53.8-4 3.9.93 5.5L8 13l-4.93 2.6.93-5.5-4-3.9 5.53-.8L8 .4"/></svg><svg width="48" height="48" viewBox="0 0 48 48" id="icon_twitter" x="176" y="176"><defs><style>.fa{fill:#df5a49}.fb{fill:#fff}</style></defs><title>icon</title><circle class="fa" cx="24" cy="24" r="24"/><path class="fb" d="M35.3 15.8a5.8 5.8 0 0 0 2.6-3.3 14.3 14.3 0 0 1-3.9 1.4 5.7 5.7 0 0 0-4.4-1.9 6.15 6.15 0 0 0-6.1 6.1 4.3 4.3 0 0 0 .2 1.3 16.3 16.3 0 0 1-12.5-6.3 6.1 6.1 0 0 0-.8 3 5.9 5.9 0 0 0 2.7 5.1 6.7 6.7 0 0 1-2.7-.8 5.9 5.9 0 0 0 4.8 6l-1.6.2h-1a5.8 5.8 0 0 0 2.1 3 6 6 0 0 0 3.5 1.2 11.8 11.8 0 0 1-7.5 2.6H9.2a16.8 16.8 0 0 0 9.3 2.7 16.6 16.6 0 0 0 9.3-2.7 16.7 16.7 0 0 0 6-6.5 17.7 17.7 0 0 0 1.9-8V18a12.8 12.8 0 0 0 3-3.2 13.4 13.4 0 0 1-3.4 1z"/></svg></svg>