<svg id="22e2c162-1863-4b35-9929-643f5f59dd09" data-name="Layer 1" xmlns="http://www.w3.org/2000/svg" viewBox="0 0 376.3 32"><defs><style>.\36 ecf52de-7e34-4577-832e-d925309eab04{fill:#fff;}</style></defs><title>logo</title><path class="6ecf52de-7e34-4577-832e-d925309eab04" d="M22.35 31.47l-1.53-5.81H10.76l-1.57 5.81H.01L10.1.36h11.17L31.5 31.47h-9.15zM19.09 18.8l-1.33-5.08q-.47-1.72-1.14-4.39t-.88-3.86q-.19 1.08-.73 3.53t-2.51 9.8h6.59zM34.85 31.47v-31h8.37v24.24h11.93v6.76h-20.3zM60.11 31.47v-31h8.37v24.24h11.93v6.76h-20.3zM94.48 31.47H92.3V2.52H82.23v-2h22.31v2H94.48v28.95zM131.58 31.47h-2.18V16.23h-18.1v15.24h-2.16v-31h2.16v13.77h18.1V.49h2.18v31zM157.28 31.47h-16.93v-31h16.93v2h-14.77V14.2h13.94v2h-13.94v13.28h14.77v2zM171.5 31.47h-8.24v-31h18.31v6.74H171.5v5.91h9.28v6.72h-9.28v11.63zM215.64 15.94q0 7.82-3.84 11.89t-11.23 4.07q-7.29 0-11.18-4.09t-3.88-11.91q0-7.73 3.87-11.81T200.62 0q7.4 0 11.21 4t3.81 11.94zm-21.32 0q0 9 6.25 9a5.37 5.37 0 0 0 4.71-2.18q1.54-2.18 1.54-6.8t-1.56-6.86a5.32 5.32 0 0 0-4.65-2.21q-6.29-.02-6.29 9.05zM250.22 15.94q0 7.82-3.84 11.89t-11.23 4.07q-7.29 0-11.18-4.09t-3.88-11.91q0-7.73 3.87-11.81T235.2 0q7.4 0 11.21 4t3.81 11.94zm-21.32 0q0 9 6.25 9a5.37 5.37 0 0 0 4.71-2.18q1.54-2.18 1.54-6.8t-1.56-6.86a5.32 5.32 0 0 0-4.65-2.21q-6.29-.02-6.29 9.05zM282.11 15.32q0 7.76-4.27 12t-12 4.19h-10v-31h10.72q7.45-.02 11.45 3.79t4.1 11.02zm-8.69.3q0-4.26-1.69-6.31a6.23 6.23 0 0 0-5.12-2.06h-2.44V24.6h1.84q3.81 0 5.59-2.21t1.82-6.77zM307.92 22.06a9.14 9.14 0 0 1-1.46 5.12 9.59 9.59 0 0 1-4.22 3.48 15.66 15.66 0 0 1-6.46 1.24 26.21 26.21 0 0 1-5.19-.43 19.33 19.33 0 0 1-4.36-1.51v-7.48a24.85 24.85 0 0 0 5 1.92 18.6 18.6 0 0 0 4.75.69 4.61 4.61 0 0 0 2.73-.65 2 2 0 0 0 .87-1.66 1.83 1.83 0 0 0-.35-1.11 4.1 4.1 0 0 0-1.12-1q-.77-.49-4.12-2a19.74 19.74 0 0 1-4.58-2.67 8.19 8.19 0 0 1-2.25-3 9.84 9.84 0 0 1-.73-4 7.94 7.94 0 0 1 3.11-6.67Q292.66 0 298.11 0a24 24 0 0 1 9.81 2.23l-2.56 6.46a18.57 18.57 0 0 0-7.5-2 3.9 3.9 0 0 0-2.37.57 1.73 1.73 0 0 0-.74 1.42 2 2 0 0 0 .94 1.63A36 36 0 0 0 300.8 13a14.13 14.13 0 0 1 5.56 3.87 8.39 8.39 0 0 1 1.56 5.19zM319.17 20.53h-7l-1.08-20h9.15zm-8 7.42a3.9 3.9 0 0 1 1.14-3 4.7 4.7 0 0 1 3.33-1.07 4.55 4.55 0 0 1 3.29 1.12 4 4 0 0 1 1.08 3 3.86 3.86 0 0 1-1.16 3 4.58 4.58 0 0 1-3.2 1 4.73 4.73 0 0 1-3.28-1.07 3.8 3.8 0 0 1-1.19-2.93zM331.23 12.54c2.2 1.07 4.58 1.72 6.76 2.81a63.18 63.18 0 0 0 6.47 3 21 21 0 0 0 16.32-.73 22.6 22.6 0 0 0 5.56-4.41c1.76-1.77 3.8-3.3 4.18-5.93.16-1.09-.26-2.07.25-3.09a10.46 10.46 0 0 0 .74-1.1c.21-.51-.11-1 .41-1.37s.53.32.88.21a2.42 2.42 0 0 0 1.49-2 3 3 0 0 1 2 1.7 10 10 0 0 1-.35 2.88 4.87 4.87 0 0 1-.93 1.82 5.68 5.68 0 0 0-.36 3.16c.2 2.46 1.58 4.68 1.37 7.19-.28 3.5-2.58 6.6-5.21 8.77a27.4 27.4 0 0 1-18.3 6.55c-7.07-.21-15.3-2.27-20.31-7.58a15.68 15.68 0 0 1-3.07-5 9.47 9.47 0 0 1-1.05-4.36c.17-1.37 1.61-3.24 3.15-2.52z"/></svg>